<svg xmlns="http://www.w3.org/2000/svg" fill="none" viewBox="0 0 31 37">
  <path
    fill="currentColor"
    d="M22.023 31.265c-1.266 1.465-2.648 1.233-3.978.54-1.408-.71-2.7-.74-4.185 0-1.86.955-2.842.678-3.953-.54C3.604 23.51 4.534 11.701 11.69 11.27c1.743.107 2.958 1.14 3.978 1.233 1.524-.37 2.984-1.434 4.611-1.295 1.95.185 3.423 1.11 4.392 2.775-4.03 2.883-3.074 9.22.62 10.992-.736 2.313-1.692 4.61-3.281 6.305l.013-.015Zm-6.484-20.088c-.194-3.438 2.144-6.274 4.83-6.552.375 3.977-3.022 6.938-4.83 6.552Z"
  />
</svg>
