<svg
  xmlns="http://www.w3.org/2000/svg"
  width="34"
  height="29"
  viewBox="0 0 34 29"
  fill="none"
>
  <path
    d="M4.5 3.75H8.83099L10.961 0.55625C11.075 0.38524 11.23 0.245 11.411 0.14798C11.592 0.0509502 11.794 0.00012 12 0H22C22.206 0.00012 22.408 0.0509502 22.589 0.14798C22.77 0.245 22.925 0.38524 23.039 0.55625L25.17 3.75H29.5C30.495 3.75 31.448 4.14509 32.152 4.84835C32.855 5.5516 33.25 6.5054 33.25 7.5V25C33.25 25.9946 32.855 26.9484 32.152 27.6517C31.448 28.3549 30.495 28.75 29.5 28.75H4.5C3.505 28.75 2.55201 28.3549 1.84801 27.6517C1.14501 26.9484 0.75 25.9946 0.75 25V7.5C0.75 6.5054 1.14501 5.5516 1.84801 4.84835C2.55201 4.14509 3.505 3.75 4.5 3.75ZM11.375 15.625C11.375 16.7375 11.705 17.8251 12.323 18.7501C12.941 19.6751 13.82 20.3961 14.847 20.8218C15.875 21.2476 17.006 21.359 18.097 21.1419C19.189 20.9249 20.191 20.3891 20.977 19.6025C21.764 18.8158 22.3 17.8135 22.517 16.7224C22.734 15.6312 22.623 14.5002 22.197 13.4724C21.771 12.4446 21.05 11.5661 20.125 10.948C19.2 10.3299 18.113 10 17 10C15.508 10 14.077 10.5926 13.023 11.6475C11.968 12.7024 11.375 14.1332 11.375 15.625Z"
    fill="currentColor"
  />
</svg>
