<svg xmlns="http://www.w3.org/2000/svg" fill="none" viewBox="0 0 31 37">
  <g clip-path="url(#clip0_1_12)">
    <path
      fill="#EA4335"
      d="M17.274 17.442 7.096 27.97c.114.4.32.769.6 1.078.281.31.63.552 1.02.708a2.793 2.793 0 0 0 2.423-.169l11.452-6.44-5.317-5.705Z"
    />
    <path
      fill="#FBBC04"
      d="m27.567 15.652-4.953-2.8-5.575 4.83 5.598 5.45 4.915-2.77c.435-.225.8-.564 1.054-.979a2.633 2.633 0 0 0 0-2.752 2.68 2.68 0 0 0-1.055-.979h.016Z"
    />
    <path
      fill="#4285F4"
      d="M7.096 7.992a2.561 2.561 0 0 0-.091.689v18.6c0 .232.031.464.091.689l10.527-10.26L7.096 7.991Z"
    />
    <path
      fill="#34A853"
      d="m17.35 17.98 5.264-5.129-11.438-6.47c-.43-.248-.92-.38-1.418-.381a2.756 2.756 0 0 0-2.662 1.984l10.254 9.997Z"
    />
  </g>
  <defs>
    <clipPath id="clip0_1_12">
      <path fill="#fff" d="M7 6h22v24H7z" />
    </clipPath>
  </defs>
</svg>
