<svg xmlns="http://www.w3.org/2000/svg" fill="none" viewBox="0 0 22 24">
  <g clip-path="url(#clip0_1_13)">
    <path
      fill="#EA4335"
      d="M10.274 11.442.096 21.97c.114.4.32.769.6 1.078.281.31.63.552 1.02.708a2.793 2.793 0 0 0 2.423-.169l11.452-6.44-5.317-5.705Z"
    />
    <path
      fill="#FBBC04"
      d="m20.567 9.652-4.953-2.8-5.575 4.83 5.598 5.45 4.915-2.77c.435-.225.8-.564 1.054-.979a2.633 2.633 0 0 0 0-2.752 2.68 2.68 0 0 0-1.055-.979h.016Z"
    />
    <path
      fill="#4285F4"
      d="M.096 1.992a2.561 2.561 0 0 0-.091.689v18.6c0 .232.031.464.091.689l10.527-10.26L.096 1.991Z"
    />
    <path
      fill="#34A853"
      d="m10.35 11.98 5.264-5.128L4.177.382A2.85 2.85 0 0 0 2.758 0 2.756 2.756 0 0 0 .096 1.984l10.254 9.997Z"
    />
  </g>
  <defs>
    <clipPath id="clip0_1_13">
      <path fill="#fff" d="M0 0h22v24H0z" />
    </clipPath>
  </defs>
</svg>
