<svg xmlns="http://www.w3.org/2000/svg" fill="none" viewBox="0 0 28 28">
  <path
    fill="#30434B"
    d="M22.962 12.462 19.9 15.525a5.224 5.224 0 0 1-2.9 1.474 5.223 5.223 0 0 1-1.475 2.9l-3.063 3.063a5.25 5.25 0 0 1-7.424-7.424L8.1 12.475a5.225 5.225 0 0 1 2.901-1.474c.17-1.1.687-2.115 1.474-2.9l3.063-3.063a5.25 5.25 0 0 1 7.424 7.424Z"
    opacity=".2"
  />
  <path
    fill="url(#paint0_linear_76_27)"
    d="M15.043 20.383a.875.875 0 0 1 0 1.237l-1.962 1.969a6.128 6.128 0 0 1-8.664-8.67l3.075-3.075a6.125 6.125 0 0 1 8.401-.25.877.877 0 0 1-1.164 1.312 4.375 4.375 0 0 0-5.999.178l-3.075 3.073a4.376 4.376 0 1 0 6.188 6.188l1.962-1.962a.876.876 0 0 1 1.238 0Zm8.54-15.969a6.134 6.134 0 0 0-8.664 0L12.957 6.38a.875.875 0 1 0 1.238 1.237l1.962-1.962a4.376 4.376 0 1 1 6.188 6.188L19.27 14.92a4.375 4.375 0 0 1-6 .175.877.877 0 1 0-1.163 1.312 6.125 6.125 0 0 0 8.4-.248l3.076-3.075a6.134 6.134 0 0 0 0-8.666v-.003Z"
  />
  <defs>
    <linearGradient
      id="paint0_linear_76_27"
      x1="13.998"
      x2="13.998"
      y1="2.623"
      y2="25.383"
      gradientUnits="userSpaceOnUse"
    >
      <stop stop-color="#9045C4" />
      <stop offset=".457" stop-color="#F3B73D" />
      <stop offset="1" stop-color="#F4DFC5" />
    </linearGradient>
  </defs>
</svg>
