<svg
  xmlns="http://www.w3.org/2000/svg"
  fill="none"
  viewBox="0 0 20 20"
  width="20"
  height="20"
>
  <g clip-path="url(#metamask_svg__a)">
    <path fill="#E17726" d="M20.654 0 11.58 6.755l1.687-3.98L20.654 0Z" />
    <path
      fill="#E27625"
      d="m.511.008 7.366 2.767 1.602 4.033L.51.008Zm16.491 14.359 4.01.076-1.401 4.791-4.893-1.356 2.284-3.511Zm-12.861 0 2.276 3.511-4.885 1.356-1.392-4.79 4.001-.078Z"
    />
    <path
      fill="#E27625"
      d="m9.261 5.78.164 5.327-4.904-.225 1.395-2.117.018-.02L9.26 5.78Zm2.57-.059 3.379 3.023.017.02 1.395 2.118-4.903.225.113-5.386Zm-5.27 8.66 2.677 2.1-3.11 1.511.433-3.61Zm8.022 0 .424 3.611-3.101-1.51 2.677-2.1Z"
    />
    <path
      fill="#D5BFB2"
      d="m11.974 16.283 3.147 1.534-2.927 1.4.03-.925-.25-2.009Zm-2.805 0-.24 1.993.02.94-2.935-1.4 3.155-1.532Z"
    />
    <path
      fill="#233447"
      d="m8.26 11.802.822 1.739-2.8-.825 1.978-.914Zm4.624 0 1.987.914-2.81.825.823-1.74Z"
    />
    <path
      fill="#CC6228"
      d="m6.775 14.364-.453 3.744-2.426-3.662 2.879-.082Zm7.594 0 2.879.082-2.435 3.662-.444-3.744Zm2.324-3.694-2.095 2.149-1.615-.743-.774 1.636-.507-2.813 4.99-.229Zm-12.243 0 4.991.229-.507 2.813-.773-1.636-1.607.743L4.45 10.67Z"
    />
    <path
      fill="#E27525"
      d="m4.309 10.23 2.37 2.42.082 2.39-2.452-4.81Zm12.528-.005-2.456 4.818.092-2.393 2.364-2.425Zm-7.512.152.096.604.235 1.505-.151 4.623-.717-3.713v-.039l.537-2.98Zm2.492-.008.539 2.988v.039l-.719 3.723-.028-.931-.112-3.729.32-2.09Z"
    />
    <path
      fill="#F5841F"
      d="m14.684 12.553-.08 2.077-2.5 1.96-.506-.36.566-2.936 2.52-.74Zm-8.216 0 2.511.74.567 2.938-.506.359-2.5-1.96-.072-2.076Z"
    />
    <path
      fill="#C0AC9D"
      d="m5.535 17.359 3.2 1.525-.014-.652.267-.236h3.166l.278.236-.02.65 3.178-1.52-1.547 1.287-1.87 1.292h-3.21l-1.87-1.298-1.558-1.284Z"
    />
    <path
      fill="#161616"
      d="m11.745 16.08.452.322.265 2.128-.383-.326H9.066l-.376.332.256-2.134.453-.322h2.346Z"
    />
    <path
      fill="#763E1A"
      d="m20.055.187 1.088 3.288-.68 3.324.485.376-.656.503.493.383-.652.597.4.292-1.063 1.25-4.358-1.277-.038-.02-3.14-2.666 8.12-6.049Zm-18.966 0L9.21 6.236 6.07 8.902l-.039.02L1.673 10.2.611 8.95l.4-.291-.652-.598.491-.383-.665-.504.503-.377L0 3.475 1.089.187Z"
    />
    <path
      fill="#F5841F"
      d="m14.899 8.643 4.618 1.353 1.5 4.653H17.06l-2.727.034 1.983-3.89-1.416-2.15Zm-8.654 0-1.417 2.15 1.984 3.89-2.726-.034H.135l1.492-4.653 4.618-1.353Zm7.25-5.891-1.293 3.51-.274 4.743-.104 1.486-.009 3.798H9.328l-.008-3.79-.105-1.495-.274-4.741-1.292-3.511h5.845Z"
    />
  </g>
  <defs>
    <clipPath id="metamask_svg__a">
      <path fill="#fff" d="M0 0h106v20H0z" />
    </clipPath>
  </defs>
</svg>
